# xmcd
#
# Track frame offsets:
#	150
#	14832
#	35480
#	54605
#	71182
#	83230
#	103392
#	120205
#	137447
#	153907
#	170335
#	188322
#	204247
#	220637
#	238672
#
# Disc length: 3383 seconds
#
# Revision: 1
# Processed by: cddbd v1.5.2PL0 Copyright (c) Steve Scherf et al.
# Submitted via: audiograbber 1.83.01
#
DISCID=c60d350f
DTITLE=пяолоияас вягстос [2002] - та тяацоудиа лас [цкуйеяиа, адаламтидгс, баяд
DTITLE=гс, й.а.]
DYEAR=2002
DGENRE=
TTITLE0=еяытас еимаи г аитиа - цкуйеяиа
TTITLE1=поу цуямас - амтымгс баядгс
TTITLE2=содола - екемг дглоу
TTITLE3=сгла йимдумоу - пасвакгс теяфгс
TTITLE4=жуса баядаяг лоу - цкуйеяиа
TTITLE5=жтаис есу - хелгс адаламтидгс
TTITLE6=ап' ока кеипеис - вяистима лаяацйофг
TTITLE7=ьавмы то паяалухи лоу - аццекос диомусиоу
TTITLE8=та йоййима жыта - екемг дглоу
TTITLE9=тяацоудоум та йоуяекиа - амтымгс баядгс гкиас йкымаяидгс
TTITLE10=жеццаяадес стис йуйкадес - цкуйеяиа
TTITLE11=жики йаи апатг -амт. баядгс
TTITLE12=поиос - аццекос диомусиоу
TTITLE13=с' ацапы - цкуйеяиа
TTITLE14=еилаи ломавос - MAGIC DE SPELL
EXTD=
EXTT0=
EXTT1=
EXTT2=
EXTT3=
EXTT4=
EXTT5=
EXTT6=
EXTT7=
EXTT8=
EXTT9=
EXTT10=
EXTT11=
EXTT12=
EXTT13=
EXTT14=
PLAYORDER=
